<?xml version="1.0" standalone="no"?>
<!DOCTYPE svg PUBLIC "-//W3C//DTD SVG 1.1//EN" "http://www.w3.org/Graphics/SVG/1.1/DTD/svg11.dtd" >
<!--
2013-9-30: Created.
-->
<svg>
<metadata>
Created by iconfont
</metadata>
<defs>

<font id="iconfont" horiz-adv-x="1024" >
  <font-face
    font-family="iconfont"
    font-weight="500"
    font-stretch="normal"
    units-per-em="1024"
    ascent="896"
    descent="-128"
  />
    <missing-glyph />
    
    <glyph glyph-name="approve" unicode="&#59038;" d="M469.2 545.9C414 519.6 370.3 474.3 346 418.2c-7-16.2 0.5-35.1 16.7-42.1 4.1-1.8 8.4-2.6 12.7-2.6 12.4 0 24.2 7.2 29.4 19.3 18.1 41.9 50.8 75.7 92 95.4 16 7.6 22.7 26.7 15.1 42.6C504.3 546.7 485.2 553.5 469.2 545.9zM797.6 350.20000000000005c-17.7 0-32-14.3-32-32 0-103.7-84.4-188.1-188.1-188.1-17.7 0-32-14.3-32-32s14.3-32 32-32c67.3 0 130.6 26.2 178.2 73.8 47.6 47.6 73.8 110.9 73.8 178.2C829.6 335.9 815.3 350.20000000000005 797.6 350.20000000000005zM1014.6-72.39999999999998L869.4 72.79999999999995c24.9 29.5 45.1 62.3 60.2 97.9 20 47.3 30.2 97.6 30.2 149.4s-10.2 102.1-30.2 149.4c-19.3 45.7-47 86.8-82.3 122-35.2 35.2-76.3 62.9-122 82.3-47.3 20-97.6 30.2-149.4 30.2s-102.1-10.2-149.4-30.2c-45.7-19.3-86.8-47-122-82.3-35.2-35.2-62.9-76.3-82.3-122-20-47.3-30.2-97.6-30.2-149.4s10.2-102.1 30.2-149.4c19.3-45.7 47-86.8 82.3-122 35.2-35.2 76.3-62.9 122-82.3 47.3-20 97.6-30.2 149.4-30.2s102.1 10.2 149.4 30.2c36.1 15.3 69.2 35.7 98.9 61l145.2-145.2c6.2-6.2 14.4-9.4 22.6-9.4s16.4 3.1 22.6 9.4C1027.1-105.20000000000005 1027.1-84.89999999999998 1014.6-72.39999999999998zM575.9 0.2999999999999545C399.5 0.2999999999999545 256 143.79999999999995 256 320.20000000000005s143.5 319.9 319.9 319.9 319.9-143.5 319.9-319.9S752.2 0.2999999999999545 575.9 0.2999999999999545zM319-64L140-64c-41.9 0-76 34.1-76 76l0 744c0 41.9 34.1 76 76 76l680 0c41.9 0 76-34.1 76-76l0-92.7c0-17.7 14.3-32 32-32s32 14.3 32 32l0 92.7c0 77.2-62.8 140-140 140L140 896c-77.2 0-140-62.8-140-140l0-744c0-77.2 62.8-140 140-140l179 0c17.7 0 32 14.3 32 32S336.7-64 319-64z"  horiz-adv-x="1024" />

    
    <glyph glyph-name="home" unicode="&#58913;" d="M255.863389-40.95655099999999c0-12.43317-10.079566-22.512736-22.512736-22.512736l-18.935258 0c-12.43317 0-22.512736 10.079566-22.512736 22.512736L191.902658 361.742067c0 12.43317 10.079566 22.512736 22.512736 22.512736l18.935258 0c12.43317 0 22.512736-10.079566 22.512736-22.512736L255.863389-40.95655099999999zM447.74558-40.95655099999999c0-12.43317-10.079566-22.512736-22.512736-22.512736L406.297586-63.469288000000006c-12.43317 0-22.512736 10.079566-22.512736 22.512736L383.78485 233.820606c0 12.43317 10.079566 22.512736 22.512736 22.512736l18.935258 0c12.43317 0 22.512736-10.079566 22.512736-22.512736L447.74558-40.95655099999999zM447.74558-40.95655099999999c0-12.43317-10.079566-22.512736-22.512736-22.512736L214.415394-63.469288000000006c-12.43317 0-22.512736 10.079566-22.512736 22.512736l0 18.935258c0 12.43317 10.079566 22.512736 22.512736 22.512736l210.81745 0c12.43317 0 22.512736-10.079566 22.512736-22.512736L447.74558-40.95655099999999zM639.627772 214.88534800000002c0-12.43317-10.079566-22.512736-22.512736-22.512736L406.297586 192.372611c-12.43317 0-22.512736 10.079566-22.512736 22.512736l0 18.935258c0 12.43317 10.079566 22.512736 22.512736 22.512736l210.81745 0c12.43317 0 22.512736-10.079566 22.512736-22.512736L639.627772 214.88534800000002zM639.627772-40.95655099999999c0-12.43317-10.079566-22.512736-22.512736-22.512736l-18.935258 0c-12.43317 0-22.512736 10.079566-22.512736 22.512736L575.667042 233.820606c0 12.43317 10.079566 22.512736 22.512736 22.512736l18.935258 0c12.43317 0 22.512736-10.079566 22.512736-22.512736L639.627772-40.95655099999999zM831.508941-40.95655099999999c0-12.43317-10.079566-22.512736-22.512736-22.512736L598.179778-63.469288000000006c-12.43317 0-22.512736 10.079566-22.512736 22.512736l0 18.935258c0 12.43317 10.079566 22.512736 22.512736 22.512736l210.81745 0c12.43317 0 22.512736-10.079566 22.512736-22.512736L831.509964-40.95655099999999zM831.508941-40.95655099999999c0-12.43317-10.079566-22.512736-22.512736-22.512736l-18.935258 0c-12.43317 0-22.512736 10.079566-22.512736 22.512736L767.54821 361.742067c0 12.43317 10.079566 22.512736 22.512736 22.512736l18.935258 0c12.43317 0 22.512736-10.079566 22.512736-22.512736L831.508941-40.95655099999999zM938.731988 436.075029L549.252439 825.385732c-4.300956 4.300956-9.908674 6.482645-15.545044 6.575766L533.707394 831.978894l-44.391023 0 0-0.014326c-5.65786-0.077771-11.291161-2.26253-15.608489-6.578836L84.679611 436.075029c-8.792247-8.791224-8.792247-23.045879 0-31.838126l13.388938-13.388938c8.792247-8.792247 23.045879-8.792247 31.838126 0l376.896976 377.170199 9.531074 0 377.170199-377.170199c8.792247-8.792247 23.045879-8.792247 31.838126 0l13.388938 13.388938C947.524235 413.02915 947.524235 427.283806 938.731988 436.075029z"  horiz-adv-x="1024" />

    
    <glyph glyph-name="shanchudelete31" unicode="&#59147;" d="M831.15008 110.92992l30.72 0 0-76.8-76.8 0 0 30.72 46.08 0L831.15008 110.92992zM348.16 34.12992l109.24032 0 0 30.72L348.16 64.84992 348.16 34.12992zM566.62016 34.12992 675.84 34.12992l0 30.72L566.62016 64.84992 566.62016 34.12992zM192.86016 110.92992l-30.72 0 0-76.8 76.8 0 0 30.72-46.08 0L192.86016 110.92992zM192.86016 329.39008l-30.72 0L162.14016 220.16l30.72 0L192.86016 329.39008zM192.86016 547.84l-30.72 0 0-109.23008 30.72 0L192.86016 547.84zM162.14016 657.07008l30.72 0 0 46.08 46.08 0 0 30.72-76.8 0L162.14016 657.07008zM457.39008 733.87008 348.16 733.87008l0-30.72 109.23008 0L457.39008 733.87008zM675.84 733.87008 566.62016 733.87008l0-30.72L675.84 703.15008 675.84 733.87008zM785.07008 733.87008l0-30.72 46.08 0 0-46.08 30.72 0 0 76.8L785.07008 733.87008zM831.15008 220.16l30.72 0L861.87008 329.39008l-30.72 0L831.15008 220.16zM831.15008 438.60992l30.72 0L861.87008 547.84l-30.72 0L831.15008 438.60992zM712.74496 576.21504c-19.4048 19.39456-50.8416 19.39456-70.2464 0L512 445.72672 381.51168 576.21504c-19.41504 19.39456-50.85184 19.39456-70.2464 0-19.41504-19.4048-19.41504-50.86208 0-70.26688l130.46784-130.47808L311.25504 244.992c-19.41504-19.41504-19.41504-50.86208 0-70.26688 9.69728-9.69728 22.40512-14.55104 35.1232-14.55104 12.71808 0 25.42592 4.85376 35.13344 14.55104L512 305.21344l130.48832-130.48832c9.69728-9.69728 22.40512-14.55104 35.13344-14.55104 12.70784 0 25.41568 4.85376 35.1232 14.55104 19.41504 19.4048 19.41504 50.86208 0 70.26688L582.26688 375.47008l130.46784 130.47808C732.14976 525.3632 732.14976 556.81024 712.74496 576.21504z"  horiz-adv-x="1024" />

    
    <glyph glyph-name="logout" unicode="&#58960;" d="M1008 390.2L1008 390.2 1008 390.2zM507.528-110.26400000000001L507.528-110.26400000000001c-250.512 0-453.56 203.016-453.56 453.56 0 189.616 116.408 351.984 281.52 419.72l0-0.112c4.88 1.744 10.144 2.68 15.664 2.68 25.84 0 46.936-20.992 46.936-46.896 0-20.392-13.056-37.832-31.336-44.264l0-0.032c-128.664-54.736-218.944-182.384-218.944-331.064 0-198.688 161.032-359.72 359.72-359.72 198.696 0 359.728 161.064 359.728 359.72 0 148.68-90.216 276.304-218.984 331.064l0 0c-18.24 6.4-31.264 23.84-31.264 44.256 0 25.912 20.984 46.904 46.904 46.904 5.456 0 10.68-0.936 15.632-2.68l0 0.112c165.248-67.744 281.52-230.112 281.52-419.72C961.104 92.75199999999995 758.016-110.26400000000001 507.528-110.26400000000001M507.528 374.55999999999995c-25.872 0-46.896 21-46.896 46.944L460.632 699.096 460.632 793.952 460.632 843.76c-0.032 25.848 21.024 46.904 46.896 46.904 25.912 0 46.904-21.032 46.904-46.904l0-140.776 0-93.832 0-187.624C554.44 395.592 533.448 374.55999999999995 507.528 374.55999999999995"  horiz-adv-x="1024" />

    
    <glyph glyph-name="confirm" unicode="&#59024;" d="M683.861333 478.208L235.008 478.208 235.008 420.352 683.861333 420.352ZM235.008 289.962667L655.018667 289.962667 655.018667 347.818667 235.008 347.818667ZM235.008 159.57333300000005L524.117333 159.57333300000005 524.117333 217.25866699999995 235.008 217.25866699999995ZM235.008 608.5973329999999L235.008 550.7413329999999 481.109333 550.7413329999999 481.109333 608.5973329999999ZM147.797333 768.170667l405.845333 0 0-217.258667 217.429333 0 0-280.405333 57.685333 0L828.757333 589.8240000000001 607.914667 825.514667 607.573333 826.026667 140.8 826.026667c-27.989333 0-50.517333-22.698667-50.517333-50.517333l0-782.336c0-27.989333 22.698667-50.688 50.517333-50.688l383.488 0L524.288 0 147.797333 0 147.797333 768.170667zM611.498667 608.5973329999999L611.498667 726.1866669999999l109.738667-117.418667L611.498667 608.768zM927.914667 258.55999999999995c-13.994667 10.581333-33.962667 8.021333-44.714667-5.973333L706.048 20.480000000000018 593.92 118.61333300000001c-13.312 11.605333-33.450667 10.24-44.885333-3.072-11.605333-13.312-10.24-33.450667 3.072-45.056l137.728-120.490667c13.824-12.117333 35.157333-10.069333 46.421333 4.608l197.802667 259.072c10.581333 13.994667 8.021333 33.962667-5.973333 44.714667L928.085333 258.55999999999995z"  horiz-adv-x="1024" />

    
    <glyph glyph-name="personal" unicode="&#58887;" d="M512 833.216c-123.712 0-224-100.288-224-224s100.288-224 224-224c123.712 0 224 100.288 224 224S635.712 833.216 512 833.216zM512 449.216c-88.352 0-160 71.648-160 160s71.648 160 160 160c88.352 0 160-71.648 160-160S600.384 449.216 512 449.216zM959.328 31.008000000000038C942.208 262.81600000000003 748.16 446.656 512 446.656c-246.528 0-446.4-199.136-447.872-445.344C64.128 0.8959999999999582 64 0.4479999999999791 64 0c0-0.16 0.032-0.288 0.032-0.448C64.032-0.73599999999999 64-1.024000000000001 64-1.344000000000051l0.16-0.128C64.96-36.12800000000004 93.152-64 128-64c1.184 0 2.304 0.288 3.488 0.352L131.872-64l1.696 0 668.992 0c18.048 0 32.672 14.336 32.672 32s-14.624 32-32.672 32l-643.2 0C128 0 119.328-1.344000000000051 133.92 63.39200000000005c30.816 181.184 188.128 319.264 378.08 319.264 200.832 0 365.376-154.24 382.304-350.656l-0.192 0c0.896-10.24 1.696-20.544 1.76-31.008L896 0.9919999999999618l0-35.2 0.448 0C897.632-50.78399999999999 911.104-64 928-64s30.368 13.216 31.552 29.792L960-34.20799999999997l-0.832 65.184"  horiz-adv-x="1024" />

    
    <glyph glyph-name="querenmima-copy" unicode="&#58939;" d="M527.825455 11.636363999999958L186.181818 11.636363999999958c-25.693091 0-46.545455 20.852364-46.545455 46.545455l0 372.363636c0 25.693091 20.852364 46.545455 46.545455 46.545455l558.545455 0c25.693091 0 46.545455-20.852364 46.545455-46.545455l0-60.090182 46.545455 0L837.818182 430.545455c0 51.432727-41.658182 93.090909-93.090909 93.090909L186.181818 523.636364c-51.432727 0-93.090909-41.658182-93.090909-93.090909l0-372.363636c0-51.432727 41.658182-93.090909 93.090909-93.090909l341.643636 0L527.825455 11.636363999999958zM543.256683 188.15832899999998l32.912291 32.912291 65.824582-65.824582-32.912291-32.912291-65.824582 65.824582ZM609.072379 122.34938199999999l164.561455 164.561455 32.912291-32.912291-164.561455-164.561455-32.912291 32.912291ZM535.272727 849.454545l-139.636364 0C305.664 849.454545 232.727273 776.517818 232.727273 686.545455L232.727273 523.636364l46.545455 0L279.272727 686.545455C279.272727 750.8247269999999 331.357091 802.909091 395.636364 802.909091l139.636364 0C599.552 802.909091 651.636364 750.8247269999999 651.636364 686.545455L651.636364 523.636364l46.545455 0L698.181818 686.545455C698.181818 776.517818 625.245091 849.454545 535.272727 849.454545zM674.443636 430.545455c-141.405091 0-256-114.594909-256-256 0-141.405091 114.594909-256 256-256 141.405091 0 256 114.594909 256 256C930.443636 315.95054500000003 815.848727 430.545455 674.443636 430.545455zM674.443636-34.90909099999999c-115.665455 0-209.454545 93.789091-209.454545 209.454545s93.789091 209.454545 209.454545 209.454545c115.665455 0 209.454545-93.789091 209.454545-209.454545S790.109091-34.90909099999999 674.443636-34.90909099999999z"  horiz-adv-x="1024" />

    
    <glyph glyph-name="youxiang" unicode="&#58956;" d="M577.536 507.904v-26.112c-21.504 16.384-48.128 26.112-77.312 26.112-71.168 0-128.512-57.856-128.512-128.512 0-71.168 57.856-128.512 128.512-128.512 36.864 0 69.632 15.36 93.184 40.448 16.384-30.72 45.568-40.448 87.04-40.448 77.312 0 102.912 47.616 102.912 128.512 0 167.424-126.976 283.136-283.136 283.136s-283.136-126.976-283.136-283.136c0-156.16 126.976-283.136 283.136-283.136 75.776 0 146.944 29.184 200.192 82.944l-18.432 18.432c-48.64-48.64-113.152-75.264-182.272-75.264-141.824 0-257.536 115.712-257.536 257.536s115.2 257.536 257.536 257.536c141.824 0 257.536-103.424 257.536-257.536 0-64.512-18.432-102.912-77.312-102.912-75.776 0-77.312 47.104-77.312 102.912V508.416h-25.088z m-78.336-231.936c-56.832 0-102.912 46.08-102.912 103.424s46.08 102.912 102.912 102.912c30.72 0 58.368-13.824 77.312-35.328v-67.584c0-24.064 2.048-44.032 5.632-60.416-18.944-26.112-49.152-43.008-82.944-43.008z"  horiz-adv-x="1024" />

    
    <glyph glyph-name="booth" unicode="&#58921;" d="M896 768v-768H128V768h768m0 64H128c-32 0-64-32-64-64v-768c0-32 32-64 64-64h768c32 0 64 32 64 64V768c0 32-32 64-64 64z"  horiz-adv-x="1024" />

    
    <glyph glyph-name="message-channel" unicode="&#59017;" d="M832.9 832H191.1C121.2 832 64 774.8 64 704.9v-513.7c0-70 57.2-127.2 127.1-127.2H384l128-128 128 128h192.9c69.9 0 127.1 57.2 127.1 127.1V704.9C960 774.8 902.8 832 832.9 832zM192 384h448v-64H192v64z m640 64H192v64h640v-64z m0 128H192v64h640v-64z"  horiz-adv-x="1024" />

    
    <glyph glyph-name="product" unicode="&#59105;" d="M1024 106.66666699999996c0-129.6-105.045333-234.666667-234.666667-234.666667-129.6 0-234.666667 105.045333-234.666666 234.666667v170.645333A64 64 0 0 0 618.688 341.33333300000004H789.333333c129.6 0 234.666667-105.045333 234.666667-234.666666z m-85.333333 0c0 82.304-66.858667 149.333333-149.333334 149.333333h-149.333333v-149.333333c0-82.304 66.858667-149.333333 149.333333-149.333334 82.304 0 149.333333 66.858667 149.333334 149.333334zM0 106.66666699999996c0 129.621333 105.066667 234.666667 234.666667 234.666666h170.645333A64 64 0 0 0 469.333333 277.312V106.66666699999996c0-129.621333-105.066667-234.666667-234.666666-234.666667-129.621333 0-234.666667 105.066667-234.666667 234.666667z m85.333333 0c0-82.474667 67.029333-149.333333 149.333334-149.333334 82.474667 0 149.333333 67.029333 149.333333 149.333334v149.333333h-149.333333c-82.474667 0-149.333333-67.029333-149.333334-149.333333z m938.666667 554.666666c0-129.621333-105.066667-234.666667-234.666667-234.666666h-170.645333A64 64 0 0 0 554.666667 490.688V661.333333c0 129.621333 105.066667 234.666667 234.666666 234.666667 129.621333 0 234.666667-105.066667 234.666667-234.666667z m-85.333333 0c0 82.474667-67.029333 149.333333-149.333334 149.333334-82.474667 0-149.333333-67.029333-149.333333-149.333334v-149.333333h149.333333c82.474667 0 149.333333 67.029333 149.333334 149.333333zM0 661.333333C0 790.933333 105.045333 896 234.666667 896c129.6 0 234.666667-105.045333 234.666666-234.666667v-170.645333A64 64 0 0 0 405.312 426.666667H234.666667C105.066667 426.666667 0 531.712 0 661.333333z m85.333333 0c0-82.304 66.858667-149.333333 149.333334-149.333333h149.333333v149.333333c0 82.304-66.858667 149.333333-149.333333 149.333334-82.304 0-149.333333-66.858667-149.333334-149.333334z"  horiz-adv-x="1024" />

    
    <glyph glyph-name="credentials_icon" unicode="&#58996;" d="M1053.926 754.789h-798.626c-62.983-0.064-114.023-51.105-114.087-114.082v-513.408c0.064-62.983 51.105-114.023 114.083-114.087h798.632c62.983 0.064 114.024 51.105 114.087 114.082v513.408c-0.064 62.983-51.105 114.023-114.082 114.087zM1110.965 127.298c-0.041-31.491-25.558-57.008-57.045-57.05h-798.62c-31.487 0.047-56.998 25.562-57.038 57.045v513.405c0.04 31.491 25.558 57.008 57.045 57.049h798.62c31.487-0.047 56.998-25.562 57.039-57.045zM946.142 361.40999999999997c30.804 26.183 50.735 64.688 50.735 108.152 0 78.633-63.979 142.613-142.613 142.613s-142.601-63.98-142.601-142.613c0-43.464 19.961-81.969 50.766-108.152-63.939-33.32-107.813-100.123-107.813-177.071 0-15.753 12.772-28.524 28.524-28.524 15.753 0 28.524 12.772 28.524 28.524 0 78.633 63.98 142.612 142.612 142.612s142.613-63.979 142.613-142.612c0 0 0 0 0 0 0-15.753 12.772-28.524 28.524-28.524 15.753 0 28.524 12.772 28.524 28.524 0 0 0 0 0 0-0.009 76.948-43.854 143.752-107.795 177.071zM768.702 469.563c0 47.257 38.308 85.563 85.564 85.563s85.563-38.308 85.563-85.563c0-47.257-38.308-85.563-85.563-85.563-47.234 0.052-85.51 38.33-85.563 85.559zM626.087 555.137h-342.264c-15.753 0-28.524-12.772-28.524-28.524s12.772-28.524 28.524-28.524h342.264c15.753 0 28.524 12.772 28.524 28.524s-12.772 28.524-28.524 28.524zM597.563 412.524h-313.74c-15.753 0-28.524-12.772-28.524-28.524s12.772-28.524 28.524-28.524h313.74c15.753 0 28.524 12.772 28.524 28.524s-12.772 28.524-28.524 28.524zM512 269.913h-228.176c-15.753 0-28.524-12.772-28.524-28.524s12.772-28.524 28.524-28.524h228.176c15.753 0 28.524 12.772 28.524 28.524s-12.772 28.524-28.524 28.524z"  horiz-adv-x="1417" />

    
    <glyph glyph-name="web-icon-" unicode="&#59124;" d="M862.656 111.29600000000005c-15.04-54.176-113.6-98.048-221.088-71.2-108 26.912-216.192 83.904-303.232 170.336-86.304 86.88-143.36 195.04-170.272 303.136-26.816 107.52 17.024 205.952 71.168 221.088 13.856 3.84 69.824 9.984 154.208-140.416 24.064-43.328 5.568-41.248-48.352-129.12-25.216-41.056 16.096-96.832 16.096-96.832s28.064-44.16 59.52-75.68c31.424-31.552 75.648-59.456 75.648-59.456s55.776-41.184 96.832-16.192c87.936 53.856 85.824 72.544 128.928 48.288 150.528-84.32 144.288-140.224 140.544-153.952z m0 0"  horiz-adv-x="1024" />

    
    <glyph glyph-name="validate" unicode="&#58893;" d="M513.807059-128C351.171765-128 58.428235 126.19294100000002 54.211765 376.16941199999997V662.287059a93.364706 93.364706 0 0 0 81.317647 88.545882 570.428235 570.428235 0 0 1 163.237647 40.357647A393.336471 393.336471 0 0 1 446.945882 872.508235a101.797647 101.797647 0 0 0 120.470589 5.421177A629.458824 629.458824 0 0 1 716.8 792.395294a1255.303529 1255.303529 0 0 1 169.863529-38.550588 98.785882 98.785882 0 0 0 79.510589-90.955294 2911.171765 2911.171765 0 0 0-3.011765-291.538824C924.611765 49.09176500000001 672.828235-128 513.807059-128z m0 963.764706a39.152941 39.152941 0 0 1-24.696471-7.830588A438.512941 438.512941 0 0 0 319.247059 734.569412a608.376471 608.376471 0 0 0-180.705883-43.369412 33.731765 33.731765 0 0 1-24.094117-30.117647v-283.708235C118.663529 155.10588199999995 389.722353-67.76470600000005 513.807059-67.76470600000005s354.183529 148.178824 391.529412 444.536471c9.035294 175.887059 0 281.901176 0 283.105882a38.550588 38.550588 0 0 1-29.515295 33.731765 1287.830588 1287.830588 0 0 0-180.705882 41.562353A676.442353 676.442353 0 0 0 536.094118 829.741176a37.345882 37.345882 0 0 1-24.094118 6.02353zM784.865882 479.171765L487.905882 198.47529399999996a40.357647 40.357647 0 0 0-49.392941-4.818823l-7.830588 6.625882-161.430588 171.068235a40.357647 40.357647 0 1 0 60.235294 55.416471l133.722353-141.552941 267.444706 252.988235a40.357647 40.357647 0 1 0 55.41647-60.235294"  horiz-adv-x="1024" />

    
    <glyph glyph-name="file_excel" unicode="&#59131;" d="M423.563636 211.781818V359.796364h247.621819v60.509091H423.563636V556.218182h263.447273V616.727273H352.814545v-465.454546H698.181818v60.509091zM0 896v-1024h1024V896H0z m698.181818-744.727273H352.814545V616.727273h334.196364v-60.509091H423.563636v-135.912727h247.621819v-60.509091H423.563636v-148.014546H698.181818V151.272727z"  horiz-adv-x="1024" />

    
    <glyph glyph-name="youxiang1" unicode="&#58987;" d="M104.9 662.9v-557.8H919V662.9H104.9z m715.2-46L512 411.6 203.9 616.9h616.2zM150.9 151.10000000000002V597L512 356.4 873.1 597v-445.9H150.9z"  horiz-adv-x="1024" />

    
    <glyph glyph-name="yonghu" unicode="&#58902;" d="M958.744-63H65.256c5.43 164.648 99.9 306.757 236.805 379.726A299.076 299.076 0 0 0 212 531c0 165.685 134.315 300 300 300s300-134.315 300-300a299.076 299.076 0 0 0-90.061-214.274C858.844 243.75699999999995 953.315 101.64800000000002 958.744-63zM752 531c0 132.548-107.452 240-240 240S272 663.548 272 531s107.452-240 240-240 240 107.452 240 240z m-82.542-255.384a300.157 300.157 0 0 0-314.916 0C241.3 225.11400000000003 156.782 121.81799999999998 132.269-3h759.462C867.218 121.81799999999998 782.7 225.11400000000003 669.458 275.616z"  horiz-adv-x="1024" />

    
    <glyph glyph-name="statistical" unicode="&#58954;" d="M168 256a40 40 0 0 1-40-40v-240a40 40 0 0 1 80 0V216a40 40 0 0 1-40 40z m229.33 256a40 40 0 0 1-40-40v-496a40 40 0 0 1 80 0V472a40 40 0 0 1-40 40zM856 512a40 40 0 0 1-40-40v-496a40 40 0 0 1 80 0V472a40 40 0 0 1-40 40zM626.67 320a40 40 0 0 1-40-40v-304a40 40 0 0 1 40-40 40 40 0 0 1 40 40V280a40 40 0 0 1-40 40zM920.33 832H776a40 40 0 0 1 0-80h47.5L631.14 561.89l-194.95 195a39.49 39.49 0 0 1-54.51 1.27q-0.82-0.74-1.62-1.53L75.72 452.24a39.85 39.85 0 0 1 56.36-56.36l276.17 276.18L600.34 480c0.69-0.82 1.4-1.61 2.16-2.38a39.59 39.59 0 0 1 20.82-11.12l0.54-0.09 1.16-0.2a39.42 39.42 0 0 1 33.18 10.5l0.61 0.58L880.33 696.1V648a40 40 0 0 1 80 0V792a40 40 0 0 1-40 40z"  horiz-adv-x="1024" />

    
    <glyph glyph-name="chanpin" unicode="&#58881;" d="M141.420471 551.827797c105.682823-43.452708 264.603575-108.261402 271.503707-111.075946 13.434154-5.691119 28.358289-28.936037 28.366803-53.323071v-375.562755c0-8.739194-5.981817-13.3928-10.300937-13.392799-0.976698 0-1.983803 0.220152-3.077267 0.671403-109.945993 45.430429-258.417418 108.077739-259.90375 108.705356l-0.097305 0.041355-0.097304 0.040138c-14.307465 5.958707-26.395163 30.38223-26.395164 53.332801V551.827797m-44.819841 66.987108v-457.551842c0-35.879956 18.562121-79.955415 53.982311-94.70805 0 0 148.833886-62.811512 260.215126-108.834285 6.717685-2.775622 13.542406-4.06856 20.193194-4.06856 29.181732 0 55.121995 24.845583 55.121994 58.215074V387.429997c-0.015812 40.694114-24.115797 81.425935-56.051256 94.739674 0-0.001216-244.978399 99.887102-333.461369 136.645234zM879.252919 551.827797v-390.563518c0-22.949354-12.087698-47.372878-26.395163-53.332801l-0.097305-0.040138-0.096089-0.041355c-1.487548-0.627616-149.957757-63.27371-259.904966-108.705356-1.093464-0.451251-2.099353-0.671404-3.07605-0.671403-4.31912 0-10.300937 4.654822-10.300937 13.392799V387.412968c0.00973 24.402846 14.933865 47.64898 28.366803 53.3401 6.900132 2.813327 165.820884 67.623238 271.503707 111.074729m44.821057 66.987108c-88.48297-36.758132-333.461369-136.64645-333.461369-136.646451-31.93546-13.313739-56.03666-54.045559-56.051256-94.739674v-375.562755c0-33.367057 25.942696-58.215073 55.121995-58.215073 6.653221 0 13.473076 1.291722 20.193194 4.06856 111.38124 46.023989 260.215125 108.834285 260.215125 108.834285 35.42019 14.752635 53.983528 58.828094 53.983528 94.70805V618.814905h-0.001217zM510.337303 770.204259c17.854228 0 35.335049-2.733051 46.761073-7.311244l246.458649-98.742554-246.458649-98.742553c-11.427241-4.578194-28.908062-7.311245-46.761073-7.311245s-35.333832 2.733051-46.761073 7.311245L217.116364 664.150461l246.458649 98.742554c11.427241 4.578194 28.908062 7.311245 46.76229 7.311244m0 44.821058c-22.957869 0-45.914521-3.509057-63.430614-10.525955L96.599413 664.150461l350.306059-140.3489c17.516094-7.018114 40.473962-10.527171 63.430615-10.527171 22.957869 0 45.914521 3.509057 63.430614 10.527171l350.306059 140.3489L573.767917 804.499362c-17.516094 7.018114-40.473962 10.525955-63.430614 10.525955z"  horiz-adv-x="1024" />

    
    <glyph glyph-name="fapiao" unicode="&#59011;" d="M188.7 443.1h-64.2C55.8 443.1 0 498.9 0 567.6V718.9C0 787.5 55.8 843.4 124.5 843.4h775.3c68.7 0 124.5-55.8 124.5-124.5v-139.2c0-68.7-55.8-124.5-124.5-124.5H782.2v64.3h117.6c33.2 0 60.3 27 60.3 60.3V718.9c0 33.2-27 60.3-60.3 60.3H124.5c-33.2 0-60.3-27-60.3-60.3v-151.2c0-33.2 27-60.3 60.3-60.3h64.2v-64.3zM210.1-74.1c-3.7 0-7.4 0.6-11.1 2-12.7 4.6-21 16.7-21 30.1V643.2c0 17.8 14.4 32.1 32.1 32.1h604.2c17.8 0 32.1-14.4 32.1-32.1v-148c0-17.8-14.4-32.1-32.1-32.1-17.8 0-32.1 14.4-32.1 32.1V611.1h-540v-565.9l28.7 33.7c5.8 6.9 14.4 10.9 23.4 11.2s17.8-3.2 24.1-9.7l76.5-78.6 97.3 78.5c12.4 10 30.4 9.4 42.2-1.6l82.1-77 89.7 77.9c13.3 11.5 33.3 10.2 45-2.8l30.8-34.5V312.1c0 17.8 14.4 32.1 32.1 32.1 17.8 0 32.1-14.4 32.1-32.1V-42c0-13.4-8.2-25.3-20.7-30s-26.5-1.3-35.5 8.6l-65.9 73.7-87.7-76.1c-12.4-10.8-31-10.4-43.1 0.8l-82.9 77.7-98.3-79.3c-13-10.4-31.6-9.3-43.2 2.6l-72.3 74.3-62.5-73.2c-5.8-7.3-14.8-11.2-24-11.2zM865.6 613.4h-707c-17.8 0-32.1 14.4-32.1 32.1 0 17.8 14.4 32.1 32.1 32.1h707c17.8 0 32.1-14.4 32.1-32.1 0.1-17.7-14.3-32.1-32.1-32.1z m-202.8-231H361.5c-17.7 0-32.1 14.5-32.1 32.1 0 17.7 14.5 32.1 32.1 32.1h301.3c17.7 0 32.1-14.5 32.1-32.1s-14.4-32.1-32.1-32.1z m0-176.9H361.5c-17.7 0-32.1 14.5-32.1 32.1 0 17.7 14.5 32.1 32.1 32.1h301.3c17.7 0 32.1-14.5 32.1-32.1s-14.4-32.1-32.1-32.1z"  horiz-adv-x="1024" />

    
    <glyph glyph-name="password" unicode="&#58997;" d="M912.384 380.928c0 24.576-9.728 48.128-27.648 66.048 0 0 0 0.512-0.512 0.512-17.92 17.92-41.472 28.16-66.56 28.16H808.96V599.04c0 58.88-17.408 115.712-49.664 163.84 0 0 0 0.512-0.512 0.512-0.512 1.024-1.536 2.048-2.048 3.072-10.24 14.848-22.016 29.184-35.328 41.984-56.32 56.32-130.56 87.04-209.92 87.04C433.152 896 358.4 864.768 302.08 808.96c-13.312-13.312-24.576-27.136-35.328-41.984-0.512-1.024-1.536-2.048-2.048-3.072 0 0 0-0.512-0.512-0.512C232.448 714.752 215.04 657.92 215.04 599.04v-123.392h-8.704c-25.088 0-48.64-9.728-66.56-28.16 0 0 0-0.512-0.512-0.512-17.92-17.92-27.648-41.472-27.648-66.048v-415.232c0-24.064 9.728-47.104 26.624-65.024l1.536-1.536c14.848-14.848 35.328-24.576 57.344-26.624 3.072-0.512 6.144-0.512 9.216-0.512h611.328c3.072 0 6.144 0 9.216 0.512 21.504 2.048 42.496 11.264 57.344 26.624l1.536 1.536c16.896 17.92 26.624 40.96 26.624 65.024v415.232zM273.408 599.04c0 64 24.576 123.904 69.632 168.96l2.56 2.56c44.544 42.496 102.4 66.56 162.816 67.072h7.168c60.416-1.024 118.272-24.576 162.816-67.072l2.56-2.56c45.056-45.056 69.632-104.96 69.632-168.96v-123.392H273.408V599.04zM206.336-69.63199999999995h-3.584c-7.68 1.024-15.36 4.096-22.528 10.24-6.656 6.656-10.24 15.36-10.24 24.576v415.232c0 9.216 4.096 19.456 10.24 25.6 7.68 6.656 16.384 10.24 25.6 10.24h611.328c9.216 0 17.92-3.584 25.6-10.24 6.144-6.656 10.24-16.384 10.24-25.6v-415.232c0-9.216-3.584-17.92-10.24-24.576-6.656-6.144-14.336-9.728-22.528-10.24H206.336z"  horiz-adv-x="1024" />

    
    <glyph glyph-name="username" unicode="&#58999;" d="M703.392304 295.212394c-52.709645-39.404298-118.724638-59.362319-191.392304-59.362319s-132.029985 19.958021-191.392304 59.362319c0-6.652674-6.652674-6.652674-13.305347-6.652674-132.029985-79.32034-224.655672-224.655672-224.655672-382.784608 0-19.958021-13.305347-33.263368-33.263369-33.263368s-33.263368 13.305347-33.263368 33.263368c0 184.73963 99.278361 350.032984 257.407296 436.005997-58.850575 58.850575-91.602199 138.170915-91.602199 224.143928C181.925037 750.664668 327.26037 896 512 896s330.074963-145.335332 330.074963-330.074963c0-85.973013-33.263368-165.293353-92.625688-224.655672 158.64068-85.973013 257.407296-250.754623 257.407297-436.005997 0-19.958021-13.305347-33.263368-33.263369-33.263368s-33.263368 13.305347-33.263368 33.263368c0 158.64068-92.625687 303.976012-231.308346 382.784608 1.023488 0.511744-5.629185 0.511744-5.629185 7.164418z m-191.392304 6.652673c145.335332 0 264.05997 118.724638 264.05997 264.05997S657.335332 829.985007 512 829.985007 247.94003 711.26037 247.94003 565.925037s118.724638-264.05997 264.05997-264.05997z"  horiz-adv-x="1024" />

    
    <glyph glyph-name="exhibitor" unicode="&#58969;" d="M460.8 332.79999999999995c-155.136 0-281.6 126.464-281.6 281.6S305.664 896 460.8 896s281.6-126.464 281.6-281.6c0-39.424-8.192-77.312-23.552-112.64-5.632-12.8-20.992-18.944-33.792-12.8-12.8 5.632-18.944 20.992-12.8 33.792 12.8 29.184 19.456 59.904 19.456 92.16 0 126.976-103.424 230.4-230.4 230.4s-230.4-103.424-230.4-230.4 103.424-230.4 230.4-230.4c14.336 0 25.6-11.264 25.6-25.6S475.136 332.79999999999995 460.8 332.79999999999995zM51.2-128H0c0 121.344 51.712 249.344 142.336 350.72C233.984 325.12 350.208 384 460.8 384v-51.2c-202.752 0-409.6-232.448-409.6-460.8zM829.952-128c-21.504 0-41.472 10.24-54.784 29.184l-19.456 28.16c-3.072 4.608-8.192 7.168-13.312 7.168s-10.24-2.56-13.824-7.168l-19.456-28.16c-18.432-26.624-50.688-35.84-80.896-23.552-30.208 12.288-47.104 42.496-41.472 74.24l5.632 33.28c1.536 8.192-3.072 13.312-5.12 15.36-2.048 2.048-7.168 5.632-14.336 4.608l-33.792-6.144c-32.256-5.632-61.952 10.24-74.752 39.936-12.8 30.208-3.072 62.976 23.552 81.92l28.16 19.456c4.608 3.072 7.168 8.192 7.168 13.312s-2.56 10.24-7.168 13.824l-28.16 19.456c-26.624 18.432-35.84 51.2-23.552 80.896 12.288 30.208 41.984 46.592 74.24 40.96l33.28-6.144c7.68-1.536 13.312 3.072 14.848 4.608 2.048 2.048 5.632 7.168 4.096 14.336v0.512l-5.632 33.28c-5.632 31.744 10.24 61.44 39.936 74.24 30.208 12.8 62.976 3.072 81.92-23.552l19.456-28.16c3.072-4.608 8.192-7.168 13.312-7.168s10.24 2.56 13.824 7.168l19.456 28.16c18.432 26.624 51.2 36.352 80.896 23.552 30.208-12.288 46.08-42.496 40.448-74.752l-3.584-32.256c-1.536-8.192 3.072-13.312 5.12-15.36 2.048-2.048 7.168-5.632 14.336-4.608l33.792 6.144c32.256 5.632 62.464-10.24 74.752-39.936 12.8-30.208 3.072-62.976-23.552-81.92l-28.16-19.456c-4.608-3.072-7.168-8.192-7.168-13.312s2.56-10.24 7.168-13.824l28.16-19.456c27.136-18.944 36.864-52.224 24.064-82.432-12.8-29.696-42.496-45.568-74.752-39.424l-32.768 6.144c-7.68 1.536-13.312-3.072-14.848-4.608-2.048-2.048-5.632-7.168-4.096-14.336v-0.512l5.632-33.28c5.632-31.744-10.24-61.952-39.936-74.24-10.24-4.096-19.456-6.144-28.672-6.144zM742.4-12.288000000000011c22.016 0 43.008-10.752 55.296-29.184l19.456-28.16c7.168-10.24 16.896-6.656 19.968-5.632 3.584 1.536 11.776 6.144 9.728 18.432l-5.632 33.28c-4.096 21.504 2.56 44.032 17.92 59.392 15.872 15.872 38.4 23.04 60.416 19.456l33.28-6.144c11.776-2.048 16.384 5.632 17.92 9.216 1.024 3.072 4.608 12.8-6.144 20.48l-28.16 19.456c-18.432 12.8-29.184 33.792-29.184 55.808s10.752 43.008 29.184 55.296l28.16 19.456c10.24 7.168 7.168 16.896 5.632 19.968-1.536 3.584-6.144 11.776-18.432 9.728l-33.28-6.144c-21.504-4.096-43.52 2.56-59.392 17.92-15.872 15.872-23.552 38.4-19.456 60.416l5.632 33.28c2.048 12.288-6.144 16.896-9.728 18.432-3.584 1.536-12.8 4.096-19.456-5.632l-19.456-28.16c-12.8-18.432-33.792-29.184-55.808-29.184s-43.008 10.752-55.296 29.184l-19.456 28.16c-7.168 9.728-16.896 6.656-19.968 5.632-3.584-1.536-11.776-6.144-9.728-17.92l5.632-33.28c4.096-21.504-2.56-44.032-17.92-59.392-15.872-15.872-38.4-23.04-60.416-19.456l-33.28 6.144c-11.264 2.048-16.384-6.656-17.92-10.24-1.536-3.584-4.096-12.8 5.632-19.456l28.16-19.456c18.432-12.8 29.184-33.792 29.184-55.808s-10.752-43.008-29.184-55.296l-28.16-19.456c-10.24-7.168-7.168-16.896-5.632-19.968 1.536-3.584 6.144-11.776 18.432-9.728l33.28 6.144c21.504 4.096 43.52-2.56 59.392-17.92 15.872-15.872 23.552-38.4 19.456-60.416l-5.632-33.28c-2.048-12.288 7.168-17.408 10.24-18.432 3.584-1.536 12.8-4.096 19.456 5.632l19.456 28.16c12.8 17.92 33.28 28.672 55.808 28.672z m0.512 21.504c-79.36 0-143.872 65.024-143.872 144.384s64.512 144.384 143.872 144.384c79.36 0 143.872-65.024 143.872-144.384s-64.512-144.384-143.872-144.384z m0 237.568c-51.2 0-92.672-41.984-92.672-93.184s41.472-93.184 92.672-93.184 92.672 41.984 92.672 93.184-41.472 93.184-92.672 93.184z"  horiz-adv-x="1024" />

    
    <glyph glyph-name="danwei" unicode="&#58946;" d="M661 812v-860H84V812h577m29.3 80H54.7C26.7 892 4 865.1 4 832v-900c0-33.1 22.7-60 50.7-60h635.6c28 0 50.7 26.9 50.7 60V832c0 33.1-22.7 60-50.7 60zM505 154v-201H240V154h265m61 80H178.1c-16.8 0-18.1-9.5-18.1-21.2v-318.5c0-11.7 1.4-21.2 18.1-21.2H566c16.8 0 19 9.5 19 21.2V212.79999999999995c0 11.7-2.2 21.2-19 21.2zM942 501v-548H742.1V501H942m63.9 80H677.5c-14.2 0-15.3-18.6-15.3-41.6v-624.7c0-23 1.1-41.6 15.3-41.6h328.4c14.2 0 16.1 18.6 16.1 41.6V539.4c0 23-1.9 41.6-16.1 41.6zM291 673H185c-22.1 0-40 17.9-40 40s17.9 40 40 40h106c22.1 0 40-17.9 40-40s-17.9-40-40-40zM561 673H455c-22.1 0-40 17.9-40 40s17.9 40 40 40h106c22.1 0 40-17.9 40-40s-17.9-40-40-40zM291 516H185c-22.1 0-40 17.9-40 40s17.9 40 40 40h106c22.1 0 40-17.9 40-40s-17.9-40-40-40zM561 516H455c-22.1 0-40 17.9-40 40s17.9 40 40 40h106c22.1 0 40-17.9 40-40s-17.9-40-40-40zM291 359H185c-22.1 0-40 17.9-40 40s17.9 40 40 40h106c22.1 0 40-17.9 40-40s-17.9-40-40-40zM561 359H455c-22.1 0-40 17.9-40 40s17.9 40 40 40h106c22.1 0 40-17.9 40-40s-17.9-40-40-40zM766 339h-39.7c-22.1 0-40 17.9-40 40s17.9 40 40 40H766c22.1 0 40-17.9 40-40s-17.9-40-40-40zM766 160h-43c-22.1 0-40 17.9-40 40s17.9 40 40 40h43c22.1 0 40-17.9 40-40s-17.9-40-40-40zM766-19h-36.4c-22.1 0-40 17.9-40 40s17.9 40 40 40H766c22.1 0 40-17.9 40-40s-17.9-40-40-40z"  horiz-adv-x="1024" />

    
    <glyph glyph-name="boothSelect" unicode="&#58991;" d="M508.962-63.726999999999975l-123.87 639.504 576.443-293.11-215.027-67.719 134.916-171.485-141.04-107.19-109.177 188.741-122.245-188.741z m242.85 78.491l46.316 37.353-124.814 194.808 149.478 40.745-350.19 169.102 67.702-372.739s74.345 130.916 82.695 130.916l128.813-200.185zM63.333 832.132h768.828v-63.958H63.333zM768.149 768.174h64.012V512.21h-64.012zM63.333 768.174h64.692v-703.895H63.333zM63.333 64.279h317.813v-63.919H63.333z"  horiz-adv-x="1024" />

    
    <glyph glyph-name="system" unicode="&#58888;" d="M1019.526151 357.29022799999996l-0.752388 50.409992c-0.752388 24.828802-10.533431 48.152829-28.590742 65.457752-18.057311 17.304923-41.381337 26.333578-66.21014 26.333578l-24.828802-0.752388c-8.276267 27.085966-19.562087 53.419544-33.10507 77.495959l21.066863 19.562087c18.057311 16.552535 28.590742 39.876561 30.095518 64.705364 0.752388 24.828802-7.52388 48.905217-24.828803 66.962527l-34.609845 37.619398c-34.609846 37.619398-94.048494 39.876561-131.667892 5.266715l-28.590742-26.333578c-23.324026 12.790595-47.400441 23.324026-72.981631 31.600294v24.828802C624.522477 851.609111 582.388752 893.742836 531.226371 893.742836H481.568766c-51.162381 0-93.296106-42.133725-93.296105-93.296106v-19.562086c-27.085966-7.52388-53.419544-17.304923-79.000735-30.095518l-17.304923 16.552535c-18.057311 16.552535-42.133725 25.58119-66.962527 24.828802-24.828802-0.752388-48.152829-11.285819-64.705364-30.095518l-34.609846-37.619398c-34.609846-37.619398-32.352682-97.058046 5.266716-131.667891l4.514327-3.76194c-17.304923-29.34313-30.847906-60.191036-40.628949-93.296105-24.828802 0-48.152829-9.028655-66.210139-26.333579C10.57391 452.091109 0.792866 428.767083 0.040478 403.938281V354.28067599999997c-0.752388-24.828802 9.028655-48.152829 26.333579-66.21014 17.304923-18.057311 40.628949-27.838354 65.457751-28.590742h2.257164c9.028655-31.600294 21.819251-61.695812 37.619398-90.286554l-5.266716-6.019103c-16.552535-18.057311-25.58119-42.133725-24.828802-66.962528 0.752388-24.828802 11.285819-48.152829 30.095518-64.705364l37.619397-34.609845c18.057311-16.552535 40.628949-24.828802 63.200588-24.828803 24.828802 0 50.409993 9.781043 68.467303 30.095518l1.504776 1.504776c28.590742-15.047759 57.933872-26.333578 88.781778-34.609845v-2.257164c0-51.162381 42.133725-93.296106 93.296106-93.296106h50.409993c51.162381 0 93.296106 42.133725 93.296106 93.296106v9.028655c29.34313 9.781043 57.181484 21.819251 84.26745 37.619398l7.52388-8.276268c16.552535-18.057311 39.876561-28.590742 64.705363-30.095518 24.828802-0.752388 48.905217 7.52388 66.962528 24.828803l37.619397 34.609845c18.057311 16.552535 28.590742 39.876561 30.095518 64.705364 0.752388 24.828802-7.52388 48.905217-24.828802 66.962527l-19.562087 21.066863c12.038207 24.076414 21.819251 48.905217 28.590742 74.486407l25.581191 0.752388c50.409993 0.752388 91.79133 43.638501 90.286554 94.800882z m-75.238795-19.562087c-4.514328-4.514328-11.285819-6.771492-17.304923-6.771491l-51.162381-0.752388c-15.800147 0-29.34313-11.285819-32.352682-27.085967-7.52388-36.114622-21.066863-71.476855-39.876561-103.077149-7.52388-12.790595-6.019104-29.34313 4.514328-39.876561l36.114621-39.124174c4.514328-5.266716 6.771492-11.285819 6.771492-18.05731 0-6.771492-3.009552-12.790595-8.276267-17.304923l-37.619398-34.609846c-5.266716-4.514328-11.285819-6.771492-18.057311-6.771491-6.771492 0-12.790595 3.009552-17.304923 8.276267l-27.085966 29.34313c-11.285819 12.790595-30.095518 14.295371-44.390889 4.514328-34.609846-24.076414-72.229243-41.381337-112.858192-51.162381-15.047759-3.76194-25.58119-17.304923-25.581191-33.10507v-34.609845c0-14.295371-11.285819-25.58119-25.58119-25.581191h-50.409993c-14.295371 0-25.58119 11.285819-25.58119 25.581191v29.34313c0 16.552535-11.285819 30.095518-27.838354 33.10507-42.133725 8.276267-81.257899 23.324026-118.124908 45.895664-13.542983 8.276267-31.600294 6.019104-42.886113-6.019103l-19.562087-21.066863c-9.781043-10.533431-25.58119-10.533431-35.362234-1.504776l-37.619397 34.609846c-5.266716 4.514328-7.52388 10.533431-8.276268 17.304923 0 6.771492 2.257164 13.542983 6.771492 18.057311l22.571638 24.828802c10.533431 11.285819 12.038207 28.590742 3.76194 41.381337-23.324026 36.114622-39.876561 75.238795-48.905217 116.620133-3.009552 15.047759-16.552535 26.333578-32.352682 26.333578l-28.590742 0.752388c-14.295371 0-24.828802 12.038207-24.828802 25.58119l0.752388 50.409993c0 6.771492 2.257164 12.790595 6.771492 17.304923 5.266716 5.266716 11.285819 7.52388 18.809698 7.523879l26.333579-0.752388c15.800147 0 30.095518 10.533431 33.857457 26.333578 9.781043 43.638501 27.838354 84.26745 53.419545 121.13446 9.781043 13.542983 7.52388 33.10507-5.266716 44.390889l-25.58119 23.324027c-10.533431 9.781043-10.533431 25.58119-1.504776 35.362233l34.609846 37.619398c4.514328 5.266716 10.533431 7.52388 17.304922 8.276267 6.771492 0 13.542983-2.257164 18.057311-6.771491l35.362234-32.352682c11.285819-9.781043 27.085966-12.038207 39.876561-4.514328 33.857458 19.562087 69.972079 33.10507 107.591477 40.62895 15.800147 3.009552 27.085966 17.304923 27.085966 33.105069v46.648053c0 14.295371 11.285819 25.58119 25.581191 25.581191h50.409992c14.295371 0 25.58119-11.285819 25.581191-25.581191v-50.409992c0-15.800147 10.533431-29.34313 25.58119-33.10507 36.114622-9.028655 69.972079-23.324026 101.572373-43.638501 12.790595-8.276267 30.095518-6.771492 41.381337 3.76194l47.400441 43.638501c10.533431 9.781043 26.333578 9.028655 35.362234-1.504776l34.609846-37.619398c4.514328-5.266716 6.771492-11.285819 6.771491-18.057311 0-6.771492-3.009552-12.790595-8.276267-17.304922l-41.381338-38.371786c-12.038207-11.285819-14.295371-29.34313-5.266715-42.886113 21.066863-33.10507 36.86701-69.972079 45.895665-108.343865 3.76194-15.800147 17.304923-26.333578 33.857457-26.333578l51.162381 0.752388c6.771492 0 12.790595-2.257164 18.057311-6.771492 4.514328-4.514328 7.52388-11.285819 7.523879-18.05731l0.752388-50.409993c0.752388-6.771492-1.504776-13.542983-6.771491-18.057311z m0 0M509.407121 528.082292c-81.257899 0-147.468038-66.21014-147.468039-147.468038s66.21014-147.468038 147.468039-147.468038 147.468038 66.21014 147.468038 147.468038-66.21014 147.468038-147.468038 147.468038z m0-227.22116c-44.390889 0-79.753123 36.114622-79.753123 79.753122 0 44.390889 36.114622 79.753123 79.753123 79.753123 44.390889 0 79.753123-36.114622 79.753122-79.753123s-35.362234-79.753123-79.753122-79.753122z m0 0"  horiz-adv-x="1024" />

    
    <glyph glyph-name="exhibition" unicode="&#59133;" d="M826 424c-17.673 0-32 14.327-32 32V760a8 8 0 0 1-8 8H136a8 8 0 0 1-8-8v-752a8 8 0 0 1 8-8h289c17.673 0 32-14.327 32-32 0-17.673-14.327-32-32-32H96c-17.673 0-32 14.327-32 32V800c0 17.673 14.327 32 32 32h730c17.673 0 32-14.327 32-32v-344c0-17.673-14.327-32-32-32zM211 626h471c17.673 0 32-14.327 32-32 0-17.673-14.327-32-32-32H211c-17.673 0-32 14.327-32 32 0 17.673 14.327 32 32 32z m5-206h212c17.673 0 32-14.327 32-32 0-17.673-14.327-32-32-32H216c-17.673 0-32 14.327-32 32 0 17.673 14.327 32 32 32z m0-206h212c17.673 0 32-14.327 32-32 0-17.673-14.327-32-32-32H216c-17.673 0-32 14.327-32 32 0 17.673 14.327 32 32 32z m304 206h44c17.673 0 32-14.327 32-32 0-17.673-14.327-32-32-32h-44c-17.673 0-32 14.327-32 32 0 17.673 14.327 32 32 32z m21.925-217.68a195.738 195.738 0 0 0 23.452 60.926A40.314 40.314 0 0 1 588.5 256c22.368 0 40.5 18.132 40.5 40.5 0 9.94-3.58 19.043-9.522 26.09 22.283 16.159 48.083 27.764 76.034 33.451C698.605 336.744 715.331 322 735.5 322c20.1 0 36.78 14.642 39.955 33.842 27.84-5.81 53.522-17.498 75.69-33.705A40.333 40.333 0 0 1 842 296.5c0-22.368 18.132-40.5 40.5-40.5a40.311 40.311 0 0 1 22.41 6.76 195.73 195.73 0 0 0 23.204-60.63C909.77 198.269 896 181.99300000000005 896 162.5c0-19.423 13.673-35.652 31.918-39.589a195.837 195.837 0 0 0-26.6-65.539A40.324 40.324 0 0 1 882.5 62c-22.368 0-40.5-18.132-40.5-40.5 0-7.39 1.98-14.319 5.437-20.283-21.405-14.904-45.907-25.67-72.348-31.135C771.152-11.673000000000002 754.923 2 735.5 2c-19.492 0-35.768-13.77-39.63-32.114-26.515 5.344-51.102 16.011-72.597 30.839A40.312 40.312 0 0 1 629 21.5c0 22.368-18.132 40.5-40.5 40.5a40.318 40.318 0 0 1-19.562-5.029 195.846 195.846 0 0 0-26.816 65.745C560.846 126.28200000000004 575 142.73800000000006 575 162.5c0 19.831-14.254 36.334-33.075 39.82zM735.5 96c36.727 0 66.5 29.773 66.5 66.5 0 36.727-29.773 66.5-66.5 66.5-36.727 0-66.5-29.773-66.5-66.5 0-36.727 29.773-66.5 66.5-66.5z"  horiz-adv-x="1024" />

    
    <glyph glyph-name="log" unicode="&#58922;" d="M208.736 329.664H64.384v-59.328h144.352v59.328z m0 336.096H165.44V821.408c0 7.968 4.896 14.848 10.464 14.848H677.92V895.552H175.936c-38.72-1.248-69.248-34.368-68.192-74.144V665.76h-43.36v-59.36h144.352v59.36z m0-168.096H64.384v-59.328h144.352v59.328z m714.656-76.576h-57.76v-474.496c0-7.936-4.896-14.848-10.464-14.848H175.936c-5.568 0-10.464 6.912-10.464 14.848v155.68h43.296v59.296H64.384v-59.296h43.328v-155.68c-1.024-39.776 29.472-72.896 68.192-74.144h679.232c38.72 1.184 69.248 34.368 68.256 74.144V421.088z m14.944 290.336l-83.072 85.312a71.264 71.264 0 0 1-52.544 21.728 71.52 71.52 0 0 1-51.616-23.872L386.528 388.736a30.496 30.496 0 0 1-6.176-10.72L308.16 155.48800000000006a30.016 30.016 0 0 1 6.976-30.24c7.712-7.968 19.2-10.752 29.568-7.2l216.544 74.112a28.736 28.736 0 0 1 12.128 7.936l367.072 408.448a75.552 75.552 0 0 1-2.112 102.88z m-557.12-518.272l39.104 120.64 78.336-80.416-117.44-40.224z m170.048 70.016L447.712 369.18399999999997l200.16 222.4 103.52-106.304-200.128-222.112z m346.688 385.76l-0.256-0.224L790.56 529.5360000000001 687.04 636.0640000000001l106.432 118.624a14.144 14.144 0 0 0 10.304 4.736 13.44 13.44 0 0 0 10.464-4.288l83.264-85.696c5.472-5.6 5.664-14.72 0.448-20.512z"  horiz-adv-x="1024" />

    
    <glyph glyph-name="querenmima" unicode="&#58982;" d="M512 323.20000000000005c-48 0-88-40-88-88 0-41.6 28.8-76.8 67.2-84.8v-75.2c0-11.2 8-19.2 19.2-19.2h3.2c11.2 0 19.2 8 19.2 19.2v75.2c38.4 9.6 67.2 44.8 67.2 84.8 0 48-40 88-88 88z m0-134.4c-25.6 0-46.4 20.8-46.4 46.4s20.8 46.4 46.4 46.4 46.4-20.8 46.4-46.4-20.8-46.4-46.4-46.4zM780.8 448h-3.2v118.4c0 145.6-118.4 264-264 264s-264-118.4-264-264V448h-4.8C188.8 448 144 403.2 144 348.79999999999995v-313.6c0-54.4 44.8-99.2 99.2-99.2h537.6c54.4 0 99.2 44.8 99.2 99.2V348.79999999999995c0 54.4-44.8 99.2-99.2 99.2z m-484.8 118.4c0 120 97.6 216 216 216s216-97.6 216-216V448h-432v118.4zM832 35.200000000000045c0-28.8-22.4-51.2-51.2-51.2H243.2c-28.8 0-51.2 22.4-51.2 51.2V348.79999999999995c0 28.8 22.4 51.2 51.2 51.2h537.6c28.8 0 51.2-22.4 51.2-51.2v-313.6z"  horiz-adv-x="1024" />

    
    <glyph glyph-name="menu" unicode="&#59134;" d="M376.832 421.888H130.048c-33.792 0-61.44 27.648-61.44 61.44V730.112c0 33.792 27.648 61.44 61.44 61.44h247.296c33.792 0 61.44-27.648 61.44-61.44v-247.296c-0.512-33.792-27.648-60.928-61.952-60.928zM130.048 730.112v-247.296h247.296V730.112H130.048zM739.84 370.688c-16.384 0-31.744 6.144-43.52 17.92L521.728 563.2c-11.776 11.776-17.92 27.136-17.92 43.52s6.144 31.744 17.92 43.52L696.32 824.832c11.776 11.776 27.136 17.92 43.52 17.92s31.744-6.144 43.52-17.92L957.952 650.24c11.776-11.776 17.92-27.136 17.92-43.52s-6.144-31.744-17.92-43.52L783.36 388.608c-11.776-11.776-27.136-17.92-43.52-17.92z m0 411.136l-174.592-174.592 174.592-174.592 174.592 174.592-174.592 174.592zM376.832-64.51199999999994H130.048c-33.792 0-61.44 27.648-61.44 61.44v247.296c0 33.792 27.648 61.44 61.44 61.44h247.296c33.792 0 61.44-27.648 61.44-61.44v-247.296c-0.512-34.304-27.648-61.44-61.952-61.44z m-246.784 308.224v-247.296h247.296v247.296H130.048zM863.232-64.51199999999994h-247.296c-33.792 0-61.44 27.648-61.44 61.44v247.296c0 33.792 27.648 61.44 61.44 61.44h247.296c33.792 0 61.44-27.648 61.44-61.44v-247.296c0-34.304-27.136-61.44-61.44-61.44z m-246.784 308.224v-247.296h247.296v247.296h-247.296z"  horiz-adv-x="1024" />

    
    <glyph glyph-name="breadcrumb" unicode="&#59136;" d="M333.275 704.951h597.418c16.511 0 29.871 14.328 29.871 32s-13.36 32-29.871 32H333.275c-16.496 0-29.871-14.328-29.871-32s13.375-32 29.871-32zM930.693 416.5H333.275c-16.496 0-29.871-14.328-29.871-32s13.375-32 29.871-32h597.418c16.511 0 29.871 14.328 29.871 32s-13.36 32-29.871 32z m0-352.451H333.275c-16.496 0-29.871-14.313-29.871-32 0-17.687 13.375-32 29.871-32h597.418c16.511 0 29.871 14.313 29.871 32 0 17.687-13.36 32-29.871 32zM128.197 798.693c-35.211 0-63.76-28.549-63.76-63.76s28.549-63.76 63.76-63.76 63.761 28.549 63.761 63.76-28.55 63.76-63.761 63.76z m-0.118-350.659c-35.146 0-63.642-28.681-63.642-64.055 0-35.373 28.496-64.053 63.642-64.053s63.642 28.681 63.642 64.053c0 35.374-28.496 64.055-63.642 64.055z m-0.382-354.243c-34.935 0-63.26-28.325-63.26-63.261s28.325-63.26 63.26-63.26 63.261 28.324 63.261 63.26-28.326 63.261-63.261 63.261z"  horiz-adv-x="1024" />

    
    <glyph glyph-name="biaoge-xiazai" unicode="&#59151;" d="M911.784-60.782H111.57c-26.097 0-47.328 20.66-47.328 46.054V318.026c0 19.01 15.41 34.42 34.42 34.42s34.42-15.41 34.42-34.42V8.06H890.27V317.057c0 19.01 15.41 34.42 34.42 34.42s34.42-15.41 34.42-34.42v-331.784c0-25.395-21.23-46.055-47.327-46.055zM511.57 828.796c-19.01 0-34.42-15.41-34.42-34.42v-550.562c0-19.01 15.41-34.42 34.42-34.42s34.42 15.41 34.42 34.42V794.375c0 19.01-15.412 34.42-34.42 34.42zM284.073 431.132c-8.686 0-17.375-3.266-24.073-9.82-13.585-13.296-13.82-35.09-0.525-48.675L486.97 140.184c13.296-13.586 35.088-13.821 48.675-0.525 13.586 13.296 13.821 35.089 0.524 48.674L308.675 420.786c-6.741 6.889-15.67 10.346-24.602 10.346z m456.608 0c-8.934 0-17.86-3.456-24.602-10.346L488.584 188.333c-13.296-13.586-13.062-35.378 0.524-48.674 13.587-13.296 35.379-13.062 48.675 0.525l227.496 232.453c13.296 13.586 13.061 35.379-0.525 48.674-6.697 6.554-15.388 9.82-24.073 9.82z"  horiz-adv-x="1024" />

    
    <glyph glyph-name="venue" unicode="&#58900;" d="M424.9 753.6c0.1-0.1 0.3-0.2 0.3-0.3V18c-0.1-0.1-0.2-0.3-0.3-0.3H145.6c-0.1 0.1-0.3 0.2-0.3 0.3V753.3c0.1 0.1 0.2 0.3 0.3 0.3h279.3m0 80H145.5c-44.2 0-80.3-36.1-80.3-80.3v-735.4c0-44.2 36.1-80.3 80.3-80.3h279.4c44.2 0 80.3 36.1 80.3 80.3V753.3c0 44.1-36.1 80.3-80.3 80.3zM879.8 753.1c0.1-0.1 0.3-0.2 0.3-0.3v-341c-0.1-0.1-0.2-0.3-0.3-0.3H631.4c-0.1 0.1-0.3 0.2-0.3 0.3v341c0.1 0.1 0.2 0.3 0.3 0.3h248.4m0 80H631.3c-44.2 0-80.3-36.1-80.3-80.3v-341c0-44.2 36.1-80.3 80.3-80.3h248.5c44.2 0 80.3 36.1 80.3 80.3v341c0 44.1-36.1 80.3-80.3 80.3zM880.2 207.89999999999998c0.1-0.1 0.3-0.2 0.3-0.3v-189.7c-0.1-0.1-0.2-0.3-0.3-0.3H631.8c-0.1 0.1-0.3 0.2-0.3 0.3V207.60000000000002c0.1 0.1 0.2 0.3 0.3 0.3h248.4m0 80H631.7c-44.2 0-80.3-36.1-80.3-80.3v-189.8c0-44.2 36.1-80.3 80.3-80.3h248.5c44.2 0 80.3 36.1 80.3 80.3V207.60000000000002c0 44.2-36.1 80.3-80.3 80.3z"  horiz-adv-x="1024" />

    


  </font>
</defs>
</svg>
